# Blender3D v248 OBJ File: 
# www.blender3d.org
o anubias-leaf
v 1.947806 -0.003188 0.418300
v -1.826779 0.003654 0.418300
v 0.000308 -0.124143 0.004982
v 3.500128 1.048339 3.466746
v -0.003271 1.070252 1.766262
v -3.943043 1.108740 3.466746
v 3.936527 2.196893 4.936532
v -0.002823 2.281808 3.208830
v -4.143908 2.305732 4.936532
v 0.628615 13.002119 4.800440
v 0.339242 13.005623 4.800440
v 0.491429 13.002808 4.800440
v 2.029447 10.187642 6.814592
v 0.267923 10.182552 6.393367
v -1.901141 10.235255 6.814592
v 0.103019 6.166899 6.366148
v 3.377525 6.111254 7.304520
v 0.069298 4.219640 5.114109
v -3.769295 6.199228 7.304520
v 0.138533 8.068172 6.747203
v 3.880198 4.132356 6.515192
v 2.941478 8.058614 7.413393
v -3.201787 8.158094 7.413393
v -4.242077 4.266926 6.515192
v 0.138533 8.068172 6.555359
v 0.069298 4.219640 4.922265
v 0.103019 6.166899 6.174304
v 0.267923 10.182552 6.201522
v -0.002823 2.281808 3.016986
v -0.003271 1.070252 1.574418
v 0.000308 0.117170 -0.000139
vt 0.767948 0.909945
vt 0.695968 0.941315
vt 0.536466 0.922199
vt 0.719277 0.838634
vt 0.877758 0.770040
vt 0.829972 0.882197
vt 0.424443 0.875790
vt 0.666668 0.761910
vt 0.891384 0.664481
vt 0.314167 0.764429
vt 0.576877 0.641647
vt 0.872077 0.509985
vt 0.298994 0.266432
vt 0.157666 0.331955
vt 0.126606 0.105168
vt 0.155263 0.091060
vt 0.474602 0.189765
vt 0.184688 0.078652
vt 0.403739 0.399223
vt 0.180503 0.498798
vt 0.666661 0.277717
vt 0.796269 0.382951
vt 0.489606 0.519253
vt 0.231810 0.637619
vn -0.005860 -0.879543 0.475753
vn -0.187536 -0.870998 0.454024
vn -0.253273 -0.799463 0.544664
vn -0.013153 -0.824061 0.566301
vn 0.226295 -0.801263 0.553819
vn 0.176031 -0.861110 0.476943
vn -0.315958 -0.674825 0.666860
vn -0.020539 -0.713401 0.700430
vn 0.275735 -0.687033 0.672231
vn -0.312662 -0.553667 0.771783
vn -0.022828 -0.581256 0.813379
vn 0.267373 -0.560686 0.783654
vn -0.013916 0.339061 0.940642
vn -0.252235 0.326182 0.911008
vn -0.231727 0.479080 0.846583
vn -0.014039 0.478317 0.878048
vn 0.218696 0.301981 0.927854
vn 0.204260 0.454390 0.867031
vn -0.019440 0.005951 0.999786
vn -0.277047 0.007202 0.960814
vn 0.234199 -0.008637 0.972137
vn 0.249306 -0.321970 0.913297
vn -0.023591 -0.327372 0.944578
vn -0.297830 -0.313395 0.901669
vn -0.024445 -0.583178 0.811945
vn -0.026795 -0.333262 0.942442
vn -0.024537 -0.007538 0.999664
vn -0.020478 0.307016 0.951445
vn -0.021729 -0.712333 0.701468
vn -0.013886 -0.824793 0.565233
vn -0.005860 -0.882077 0.471053
usemtl leaf_anubias-leaf.jpg
s 1
f 3/1/1 1/2/2 4/3/3 5/4/4
f 5/4/4 6/5/5 2/6/6 3/1/1
f 7/7/7 8/8/8 5/4/4 4/3/3
f 8/8/8 9/9/9 6/5/5 5/4/4
f 21/10/10 18/11/11 8/8/8 7/7/7
f 9/9/9 8/8/8 18/11/11 24/12/12
f 14/13/13 13/14/14 10/15/15 12/16/16
f 15/17/17 14/13/13 12/16/16 11/18/18
f 20/19/19 22/20/20 13/14/14 14/13/13
f 23/21/21 20/19/19 14/13/13 15/17/17
f 19/22/22 16/23/23 20/19/19 23/21/21
f 16/23/23 17/24/24 22/20/20 20/19/19
f 24/12/12 18/11/11 16/23/23 19/22/22
f 18/11/11 21/10/10 17/24/24 16/23/23
f 26/11/25 21/10/10 17/24/24 27/23/26
f 24/12/12 26/11/25 27/23/26 19/22/22
f 27/23/26 17/24/24 22/20/20 25/19/27
f 19/22/22 27/23/26 25/19/27 23/21/21
f 23/21/21 25/19/27 28/13/28 15/17/17
f 25/19/27 22/20/20 13/14/14 28/13/28
f 15/17/17 28/13/28 12/16/16 11/18/18
f 28/13/28 13/14/14 10/15/15 12/16/16
f 9/9/9 29/8/29 26/11/25 24/12/12
f 21/10/10 26/11/25 29/8/29 7/7/7
f 29/8/29 9/9/9 6/5/5 30/4/30
f 7/7/7 29/8/29 30/4/30 4/3/3
f 30/4/30 6/5/5 2/6/6 31/1/31
f 31/1/31 1/2/2 4/3/3 30/4/30
