# Blender3D v249 OBJ File: 
# www.blender3d.org
o chestnut
v 1.651502 -0.000000 -0.421460
v 0.046353 -0.000000 -0.006868
v 0.757083 -0.000000 -1.473820
v 3.151932 -0.000000 -1.309872
v 1.744208 -0.000000 -2.875538
v 3.847061 -0.000000 -2.496848
v 3.043072 -0.000000 -3.346932
v 3.518090 -0.000000 -3.368528
v 3.411528 -0.000000 -3.462377
vt 0.435921 0.152216
vt 0.062908 0.046615
vt 0.220450 0.398628
vt 0.449711 0.734102
vt 0.788537 0.367757
vt 0.755950 0.850145
vt 0.949316 0.651368
vt 0.842883 0.878731
vt 0.868449 0.856846
vn 0.000000 -1.000000 0.000000
s 1
f 1/1/1 2/2/1 3/3/1
f 1/1/1 3/3/1 5/4/1 4/5/1
f 4/5/1 5/4/1 7/6/1 6/7/1
f 6/7/1 7/6/1 9/8/1 8/9/1
