# Blender3D v249 OBJ File: leaf.blend
# www.blender3d.org
o leaf
v 0.409089 -0.000884 -4.600019
v 0.335624 -0.000885 -0.004754
v -0.415855 -0.000885 -0.004754
v -0.628462 -0.000884 -4.600019
v 0.409089 -0.000884 -7.276981
v -0.628462 -0.000884 -7.276981
v 0.454462 -0.000883 -8.275170
v -0.583090 -0.000883 -8.275170
v -0.853529 -0.000883 -11.965525
v 0.207024 -0.000882 -12.839595
v -0.119532 -0.000882 -15.693907
v -0.923063 -0.000882 -15.256070
v -0.698155 -0.000879 -24.620214
v -2.242923 0.196586 -24.011820
v 1.689846 0.289387 -5.881476
v -2.514928 0.289387 -6.624118
v -2.094691 0.289388 -9.127818
v 2.320402 0.289388 -9.016259
v -2.337195 0.289389 -14.269369
v -2.267662 0.289389 -12.063293
v -4.160067 0.579660 -11.185294
v 1.497591 0.289389 -13.210516
v 1.659206 0.289389 -14.509280
v 2.931917 0.579660 -13.070406
v 0.397149 0.289390 -16.185541
v 0.946042 0.289392 -24.235403
v 2.468894 0.829075 -22.381292
v 1.042329 0.289390 -16.039112
v 3.429829 0.869933 -19.547691
v 1.589059 0.289390 -15.737587
v 3.086823 0.579661 -16.543493
v 2.179551 0.579832 -14.897658
v -1.956582 0.289390 -15.975391
v -3.527883 0.361454 -23.487091
v -2.807003 0.289390 -15.712859
v -4.939418 0.702928 -21.772902
v -3.607278 0.579661 -14.975727
v -5.086462 0.579662 -19.464037
vt 0.633926 0.189536
vt 0.630822 0.003403
vt 0.557695 0.001340
vt 0.536270 0.183527
vt 0.629911 0.301015
vt 0.527222 0.299425
vt 0.527197 0.356077
vt 0.626128 0.351567
vt 0.519744 0.487260
vt 0.606316 0.509432
vt 0.514731 0.581269
vt 0.405979 0.950439
vt 0.499980 0.954099
vt 0.576247 0.620674
vt 0.695429 0.202129
vt 0.355792 0.303111
vt 0.438883 0.386884
vt 0.819482 0.353865
vt 0.389983 0.468838
vt 0.397136 0.577261
vt 0.184729 0.443674
vt 0.732996 0.580957
vt 0.759756 0.516487
vt 0.900213 0.528817
vt 0.631719 0.966143
vt 0.650531 0.654673
vt 0.783325 0.915841
vt 0.693052 0.632332
vt 0.881445 0.831496
vt 0.713827 0.617264
vt 0.900767 0.688480
vt 0.730896 0.599474
vt 0.485491 0.607555
vt 0.239450 0.933537
vt 0.374383 0.614146
vt 0.121437 0.873562
vt 0.207366 0.627546
vt 0.088103 0.762287
vn 0.107303 -0.994201 0.000000
vn 0.000000 -1.000000 0.000000
vn -0.073702 -0.997253 -0.003327
vn -0.091281 -0.995819 0.002472
vn 0.071749 -0.997406 -0.003876
vn -0.101505 -0.994812 0.004944
vn 0.087863 -0.996094 -0.003967
vn -0.103214 -0.994629 0.003693
vn -0.139592 -0.990173 0.008087
vn 0.088687 -0.996033 -0.001251
vn 0.076601 -0.997040 -0.002045
vn 0.221015 -0.975249 0.000000
vn -0.154424 -0.987945 -0.007019
vn -0.196387 -0.980407 0.014374
vn 0.150517 -0.988556 -0.008148
vn -0.174566 -0.984619 0.004852
vn -0.149449 -0.988739 0.004700
vn 0.191900 -0.981353 0.008454
vn 0.195990 -0.980285 0.024384
vn 0.251747 -0.967772 -0.001648
vn 0.198126 -0.979644 -0.031495
vn 0.167943 -0.985137 -0.035951
vn 0.184118 -0.982818 -0.011780
vn -0.169866 -0.985382 0.011261
vn -0.143986 -0.989532 0.007141
vn -0.142430 -0.989746 0.009949
usemtl Material.001_dandelion-leaf.png
s 1
f 1/1/1 2/2/2 3/3/2 4/4/2
f 5/5/1 1/1/1 4/4/2 6/6/3
f 6/6/3 8/7/4 7/8/5 5/5/1
f 8/7/4 9/9/6 10/10/7 7/8/5
f 12/11/8 14/12/9 13/13/10 11/14/11
f 15/15/12 1/1/1 5/5/1
f 6/6/3 16/16/13 8/7/4
f 8/7/4 17/17/14 9/9/6
f 10/10/7 18/18/15 7/8/5
f 10/10/7 9/9/6 12/11/8 11/14/11
f 9/9/6 20/19/16 19/20/16 12/11/8
f 20/19/16 21/21/17 19/20/16
f 11/14/11 23/22/18 22/23/18 10/10/7
f 23/22/18 24/24/19 22/23/18
f 13/13/10 26/25/20 25/26/20 11/14/11
f 26/25/20 27/27/21 28/28/21 25/26/20
f 27/27/21 29/29/22 30/30/22 28/28/21
f 29/29/22 31/31/23 32/32/23 30/30/22
f 12/11/8 33/33/24 34/34/24 14/12/9
f 33/33/24 35/35/25 36/36/25 34/34/24
f 35/35/25 37/37/26 38/38/26 36/36/25
