# Blender3D v249 OBJ File: septal1.blend
# www.blender3d.org
o septal1
v 0.040000 0.134651 -0.254431
v 0.040000 0.000000 0.000000
v -0.040000 -0.000000 -0.000000
v -0.040000 0.134651 -0.254432
v -0.000000 0.000000 0.000000
v 0.040000 0.017476 -0.126640
v 0.000000 0.117412 -0.274392
v -0.040000 0.017476 -0.126640
v 0.000000 -0.001672 -0.136955
v 0.040000 0.567902 -0.333224
v 0.000000 0.559211 -0.356505
v -0.040000 0.567902 -0.333225
v 0.000000 0.617390 -0.382896
v 0.040000 0.632373 -0.374486
v -0.040000 0.632373 -0.374487
v 0.040000 0.578217 -0.596269
v 0.000000 0.567333 -0.594395
v -0.040000 0.578217 -0.596269
v -0.000000 0.492885 -0.690756
vt 0.498754 0.271823
vt 0.080730 0.271303
vt 0.080616 0.141302
vt 0.499007 0.137056
vt 0.916771 0.276271
vt 0.917372 0.146274
vt 0.079902 0.043123
vt 0.499198 0.034977
vt 0.918455 0.048106
vt 0.917493 0.605820
vt 0.498129 0.604807
vt 0.078770 0.600836
vt 0.919456 0.701506
vt 0.497945 0.702916
vt 0.076448 0.696496
vt 0.918829 0.868451
vt 0.497649 0.860229
vt 0.076448 0.863445
vt 0.497446 0.967988
vn 0.000000 0.490402 0.871487
vn 0.529740 0.415784 0.739219
vn 0.396893 0.854762 0.334391
vn 0.000000 0.903378 0.428785
vn -0.529740 0.415784 0.739219
vn -0.396893 0.854762 0.334391
vn 0.239448 0.969146 0.058107
vn 0.000000 0.998199 0.059847
vn -0.239448 0.969146 0.058107
vn -0.479232 0.297952 0.825556
vn 0.000000 0.330180 0.943907
vn 0.479202 0.297952 0.825556
vn -0.439589 0.830622 0.341716
vn 0.000000 0.897763 0.440443
vn 0.439589 0.830622 0.341716
vn -0.265633 0.868801 -0.417859
vn 0.000000 0.905850 -0.423536
vn 0.265633 0.868801 -0.417859
vn 0.000000 0.791314 -0.611377
usemtl None_dandelion-green.png
s 1
f 7/1/1 4/2/2 8/3/3 9/4/4
f 1/5/5 7/1/1 9/4/4 6/6/6
f 9/4/4 8/3/3 3/7/7 5/8/8
f 6/6/6 9/4/4 5/8/8 2/9/9
f 7/1/1 1/5/5 10/10/10 11/11/11
f 4/2/2 7/1/1 11/11/11 12/12/12
f 11/11/11 10/10/10 14/13/13 13/14/14
f 12/12/12 11/11/11 13/14/14 15/15/15
f 13/14/14 14/13/13 16/16/16 17/17/17
f 15/15/15 13/14/14 17/17/17 18/18/18
f 17/17/17 16/16/16 19/19/19
f 18/18/18 17/17/17 19/19/19
