# Blender3D v249 OBJ File: cup.blend
# www.blender3d.org
o cup
v 0.445427 0.000000 0.030831
v 0.353553 0.000000 0.356175
v -0.000000 0.000000 0.502622
v -0.353553 0.000000 0.356175
v -0.445427 0.000000 0.030831
v 0.650000 1.029665 -0.001759
v 0.459619 1.000000 0.428196
v -0.000000 0.985168 0.663073
v -0.459619 1.000000 0.428196
v -0.650000 1.029665 -0.001759
v 0.505581 1.705765 0.547178
v 0.715000 1.774982 0.090978
v -0.000000 1.666212 0.761540
v -0.505581 1.705765 0.547178
v -0.715000 1.774982 0.090978
v 0.402626 2.345234 0.644149
v 0.634680 2.394675 0.321133
v -0.000000 2.345234 0.785840
v -0.402626 2.345234 0.644149
v -0.634680 2.394675 0.321132
v 0.294931 2.608927 0.689096
v 0.501170 2.673764 0.547505
v -0.000000 2.581717 0.796547
v -0.294932 2.608927 0.689096
v -0.501170 2.673764 0.547505
v 0.133079 2.839994 0.779528
v 0.337397 2.797283 0.694080
v -0.000000 2.842882 0.819580
v -0.133079 2.839994 0.779528
v -0.337397 2.797283 0.694080
v -0.337397 2.448329 -0.947686
v -0.133079 2.455864 -1.042916
v -0.000000 2.443516 -1.081126
v 0.337397 2.448329 -0.947686
v 0.133079 2.455864 -1.042916
v -0.501170 2.388820 -0.765477
v -0.294932 2.275600 -0.872402
v -0.000000 2.210067 -0.961797
v 0.501170 2.388820 -0.765477
v 0.294931 2.275600 -0.872403
v -0.634680 2.250104 -0.364302
v -0.402626 2.048030 -0.731812
v -0.000000 1.994874 -0.863154
v 0.634680 2.250104 -0.364302
v 0.402626 2.048030 -0.731812
v -0.660881 1.946836 0.175398
v -0.505581 1.705765 -0.561159
v -0.000000 1.666212 -0.775522
v 0.670128 1.946836 0.175398
v 0.505581 1.705765 -0.561159
v -0.617893 1.029665 0.027278
v -0.459619 1.000000 -0.442177
v -0.000000 0.985168 -0.677055
v 0.459619 1.000000 -0.442177
v 0.617893 1.029665 0.027278
v -0.427475 0.000000 0.072391
v -0.353553 -0.000000 -0.305700
v -0.000000 -0.000000 -0.516603
v 0.353553 -0.000000 -0.305700
v 0.427475 0.000000 0.072391
vt 0.641210 0.038675
vt 0.760666 0.019831
vt 0.855818 0.359700
vt 0.687052 0.371885
vt 0.503904 0.046321
vt 0.503904 0.377319
vt 0.366599 0.038675
vt 0.320756 0.371886
vt 0.247143 0.019831
vt 0.151990 0.359701
vt 0.869248 0.611105
vt 0.692089 0.604731
vt 0.503905 0.598280
vt 0.315720 0.604732
vt 0.138562 0.611106
vt 0.798420 0.823286
vt 0.655356 0.813772
vt 0.503905 0.817606
vt 0.352454 0.813772
vt 0.209390 0.823287
vt 0.708830 0.921052
vt 0.617670 0.902976
vt 0.503905 0.896283
vt 0.390141 0.902976
vt 0.298982 0.921053
vt 0.632439 0.966173
vt 0.553554 0.982043
vt 0.503905 0.984053
vt 0.454257 0.982043
vt 0.375373 0.966174
vt 0.647995 0.898042
vt 0.591044 0.939231
vt 0.533796 0.952717
vt 0.582836 0.872892
vt 0.497826 0.954514
vt 0.497849 0.862592
vt 0.461857 0.952685
vt 0.412858 0.872819
vt 0.404616 0.939149
vt 0.347685 0.897906
vt 0.741844 0.810635
vt 0.616607 0.779912
vt 0.497870 0.775446
vt 0.379139 0.779815
vt 0.253888 0.810394
vt 0.856154 0.661308
vt 0.648323 0.644878
vt 0.497897 0.650341
vt 0.347506 0.644799
vt 0.139232 0.661268
vt 0.761533 0.368470
vt 0.633461 0.394610
vt 0.497910 0.403452
vt 0.362366 0.394602
vt 0.234287 0.368478
vt 0.702511 0.016646
vt 0.604767 0.046256
vt 0.497910 0.058516
vt 0.391055 0.046255
vt 0.293308 0.016647
vn 0.729026 -0.149083 0.668020
vn 0.928190 -0.148686 0.341014
vn 0.919218 -0.138066 0.368694
vn 0.726279 -0.149480 0.670888
vn 0.000000 -0.140873 0.990020
vn 0.000000 -0.155461 0.987823
vn -0.729026 -0.149083 0.668020
vn -0.726279 -0.149480 0.670888
vn -0.928190 -0.148686 0.341014
vn -0.919218 -0.138066 0.368694
vn 0.892727 -0.064547 0.445906
vn 0.692831 -0.090915 0.715293
vn 0.000000 -0.118625 0.992920
vn -0.692831 -0.090915 0.715293
vn -0.892727 -0.064547 0.445906
vn 0.805506 -0.009552 0.592486
vn 0.642720 -0.026063 0.765648
vn 0.000000 -0.048006 0.998840
vn -0.642720 -0.026063 0.765648
vn -0.805506 -0.009552 0.592486
vn 0.615436 -0.075930 0.784478
vn 0.533128 -0.060884 0.843806
vn 0.000000 -0.073824 0.997253
vn -0.533128 -0.060884 0.843806
vn -0.615436 -0.075930 0.784478
vn 0.485122 -0.132237 0.864376
vn 0.408795 -0.120518 0.904599
vn 0.000000 -0.114261 0.993439
vn -0.408795 -0.120518 0.904599
vn -0.485122 -0.132237 0.864376
vn -0.651479 -0.372295 -0.661000
vn -0.485122 -0.446852 -0.751610
vn -0.408795 -0.451094 -0.793329
vn -0.570879 -0.377453 -0.729087
vn 0.000000 -0.478622 -0.877987
vn 0.000000 -0.442579 -0.896695
vn 0.408795 -0.451094 -0.793329
vn 0.570879 -0.377453 -0.729087
vn 0.485122 -0.446852 -0.751610
vn 0.651479 -0.372295 -0.661000
vn -0.883969 -0.205542 -0.419904
vn -0.705802 -0.269936 -0.654927
vn 0.000000 -0.355205 -0.934782
vn 0.703482 -0.268715 -0.657918
vn 0.882412 -0.203589 -0.424085
vn -0.960967 -0.085788 -0.262947
vn -0.742210 -0.171087 -0.647908
vn 0.000000 -0.235054 -0.971954
vn 0.738823 -0.171422 -0.651692
vn 0.958892 -0.086642 -0.270119
vn -0.962798 -0.105594 -0.248665
vn -0.781793 -0.140110 -0.607562
vn 0.000000 -0.173254 -0.984863
vn 0.779748 -0.141728 -0.609790
vn 0.961760 -0.108249 -0.251503
vn -0.953124 -0.162084 -0.255440
vn -0.775445 -0.171850 -0.607532
vn 0.000000 -0.176214 -0.984344
vn 0.775445 -0.171850 -0.607532
vn 0.953124 -0.162084 -0.255440
usemtl Material_freesia.png
s 1
f 2/1/1 1/2/2 6/3/3 7/4/4
f 3/5/5 2/1/1 7/4/4 8/6/6
f 4/7/7 3/5/5 8/6/6 9/8/8
f 5/9/9 4/7/7 9/8/8 10/10/10
f 7/4/4 6/3/3 12/11/11 11/12/12
f 8/6/6 7/4/4 11/12/12 13/13/13
f 9/8/8 8/6/6 13/13/13 14/14/14
f 10/10/10 9/8/8 14/14/14 15/15/15
f 11/12/12 12/11/11 17/16/16 16/17/17
f 13/13/13 11/12/12 16/17/17 18/18/18
f 14/14/14 13/13/13 18/18/18 19/19/19
f 15/15/15 14/14/14 19/19/19 20/20/20
f 16/17/17 17/16/16 22/21/21 21/22/22
f 18/18/18 16/17/17 21/22/22 23/23/23
f 19/19/19 18/18/18 23/23/23 24/24/24
f 20/20/20 19/19/19 24/24/24 25/25/25
f 21/22/22 22/21/21 27/26/26 26/27/27
f 23/23/23 21/22/22 26/27/27 28/28/28
f 24/24/24 23/23/23 28/28/28 29/29/29
f 25/25/25 24/24/24 29/29/29 30/30/30
f 36/31/31 31/32/32 32/33/33 37/34/34
f 37/34/34 32/33/33 33/35/35 38/36/36
f 38/36/36 33/35/35 35/37/37 40/38/38
f 40/38/38 35/37/37 34/39/39 39/40/40
f 41/41/41 36/31/31 37/34/34 42/42/42
f 42/42/42 37/34/34 38/36/36 43/43/43
f 43/43/43 38/36/36 40/38/38 45/44/44
f 45/44/44 40/38/38 39/40/40 44/45/45
f 46/46/46 41/41/41 42/42/42 47/47/47
f 47/47/47 42/42/42 43/43/43 48/48/48
f 48/48/48 43/43/43 45/44/44 50/49/49
f 50/49/49 45/44/44 44/45/45 49/50/50
f 51/51/51 46/46/46 47/47/47 52/52/52
f 52/52/52 47/47/47 48/48/48 53/53/53
f 53/53/53 48/48/48 50/49/49 54/54/54
f 54/54/54 50/49/49 49/50/50 55/55/55
f 56/56/56 51/51/51 52/52/52 57/57/57
f 57/57/57 52/52/52 53/53/53 58/58/58
f 58/58/58 53/53/53 54/54/54 59/59/59
f 59/59/59 54/54/54 55/55/55 60/60/60
