# Blender3D v246 OBJ File: rose-sub.blend
# www.blender3d.org
o sub
v 0.192938 0.259323 -0.594378
v 0.214177 0.253611 0.602000
v -0.655965 -0.363921 0.545273
v -0.615814 -0.325261 -0.518713
v -1.023027 -0.424328 0.533903
v -1.105415 -0.415386 -0.509065
v -0.996069 -0.411014 0.731126
v -1.372134 -0.410963 0.575740
v -1.824922 -0.650966 0.469686
v -1.741363 -0.447365 -0.380908
v -1.780391 -0.506351 -0.341796
v -1.902320 -0.570424 0.471799
v -2.039148 -0.505768 -0.491969
v -2.067021 -0.598829 -0.399521
v -2.340302 -0.491083 -0.490832
v -2.018824 -0.699586 0.654826
v -2.090717 -0.742886 0.583705
v -2.249374 -0.823180 0.684360
v -2.976002 -0.578106 -0.336916
v -2.629447 -0.608502 0.652361
v -3.039442 -0.473853 -0.210035
v -2.663702 -0.602423 0.626177
v -2.760421 -0.633227 0.761021
v -2.869357 -0.604329 0.665702
v -3.063937 -0.596177 0.820577
v -3.310133 -0.551526 -0.443116
v -3.423653 -0.363361 -0.216076
v -3.812595 -0.345993 -0.419418
v -3.062157 -0.613351 0.502712
v -3.112399 -0.423833 -0.103406
v -3.433079 -0.183582 -0.112227
v -3.612898 -0.481155 0.685083
v -3.718767 -0.364017 0.603729
v -3.519701 -0.151527 -0.066986
v -3.926413 -0.442973 0.704746
v -3.860272 -0.481097 0.826463
v -4.144527 -0.440921 0.857444
v -3.647179 -0.200046 -0.185149
v -3.896476 -0.148188 -0.204264
v -4.109208 -0.253360 0.519719
v -3.530427 -0.175916 -0.121882
v -3.534549 -0.197248 -0.159849
v -4.124294 -0.105795 -0.255604
v -4.593723 0.108734 0.481215
v -4.548800 -0.076983 0.609563
v -4.654688 0.097011 0.542180
v -4.755763 0.127789 0.598333
v -4.018407 -0.278123 -0.355074
v -4.111459 -0.157532 -0.297317
v -4.260839 -0.182746 -0.493087
v -4.658056 -0.003447 -0.476586
v -4.790542 0.295242 0.437307
v -5.100899 0.593156 0.316945
v -4.925630 0.222673 -0.529311
v -5.177512 0.485816 -0.615635
v -5.414940 0.868358 0.196347
v -5.620820 1.040687 -0.001555
v -5.465273 0.834467 -0.635195
v -5.998640 1.349889 -0.202151
v -5.828048 1.237123 -0.659138
v -6.708464 2.006590 -0.662351
v -5.217354 0.663219 0.389226
v -4.978722 0.218424 -0.662523
v -5.513646 0.953609 -0.711941
v -5.857723 1.299659 -0.704122
v -6.067043 1.415040 -0.147182
v -5.737352 1.140716 0.070937
v -5.466723 0.907681 0.219907
v 0.203940 0.257609 0.001703
v -0.720119 -0.484861 0.071384
v -1.077628 -0.574904 0.010752
v -1.783143 -0.657944 0.044389
v -1.841355 -0.665737 0.065001
v -2.802724 -0.457252 0.157722
v -2.851572 -0.444340 0.208071
v -3.087278 -0.403780 0.199653
v -3.522988 -0.182553 0.286428
v -3.619234 -0.159272 0.268371
v -4.002841 -0.005505 0.157727
v -4.359008 0.157650 0.112806
v -4.724299 0.363816 -0.019640
v -5.013265 0.543632 -0.106183
v -5.296226 0.736368 -0.209644
v -5.543046 0.922911 -0.318375
v -5.913344 1.255915 -0.430644
vt 0.765831 0.470006
vt 0.733191 0.441998
vt 0.696952 0.446279
vt 0.738032 0.465706
vt 0.659006 0.567865
vt 0.627617 0.574492
vt 0.627967 0.593967
vt 0.663871 0.573331
vt 0.599626 0.588270
vt 0.656253 0.461180
vt 0.635247 0.440331
vt 0.633173 0.442847
vt 0.655203 0.462057
vt 0.620439 0.432066
vt 0.581217 0.436129
vt 0.563804 0.423238
vt 0.558722 0.435228
vt 0.578644 0.441033
vt 0.541363 0.418679
vt 0.537368 0.548706
vt 0.498088 0.551855
vt 0.504240 0.582728
vt 0.541895 0.566376
vt 0.464258 0.578783
vt 0.475798 0.430946
vt 0.451213 0.410224
vt 0.443546 0.424162
vt 0.470781 0.446993
vt 0.431411 0.410756
vt 0.489396 0.541145
vt 0.488093 0.537572
vt 0.477425 0.545962
vt 0.499643 0.534651
vt 0.489428 0.532054
vt 0.421907 0.452437
vt 0.392232 0.442915
vt 0.379731 0.451533
vt 0.384262 0.458587
vt 0.366375 0.443666
vt 0.430405 0.556380
vt 0.426885 0.566078
vt 0.434273 0.573431
vt 0.450426 0.548489
vt 0.416156 0.586153
vt 0.366104 0.464980
vt 0.322548 0.470692
vt 0.329695 0.481607
vt 0.350811 0.589198
vt 0.343968 0.609173
vt 0.370948 0.585748
vt 0.294638 0.605332
vt 0.290869 0.614997
vt 0.322955 0.604410
vt 0.256590 0.607638
vt 0.253617 0.615909
vt 0.280978 0.523179
vt 0.235567 0.543031
vt 0.243027 0.550113
vt 0.301630 0.496784
vt 0.269662 0.513896
vt 0.297083 0.493162
vt 0.768630 0.556895
vt 0.832755 0.562137
vt 0.839291 0.522754
vt 0.767231 0.513451
vt 0.845826 0.483371
vt 0.739291 0.512937
vt 0.740549 0.560168
vt 0.660062 0.517255
vt 0.657104 0.514961
vt 0.561556 0.501252
vt 0.558006 0.494870
vt 0.527483 0.454969
vt 0.524219 0.492972
vt 0.520956 0.530975
vt 0.487721 0.482798
vt 0.480104 0.489524
vt 0.436166 0.500463
vt 0.407334 0.507483
vt 0.368526 0.525364
vt 0.407334 0.507484
vt 0.340253 0.535403
vt 0.312293 0.550597
vt 0.287808 0.564256
vt 0.249809 0.578875
vt 0.177470 0.610071
vn 0.320048 -0.935972 0.146641
vn 0.067873 -0.996002 0.057955
vn 0.139592 -0.977081 0.160619
vn 0.249214 -0.917661 -0.309458
vn 0.164678 -0.712241 -0.682333
vn 0.292550 -0.857631 -0.422926
vn -0.036744 -0.698721 -0.714438
vn -0.188330 -0.977050 -0.099307
vn 0.283456 -0.919950 -0.270821
vn -0.248024 -0.950865 -0.185186
vn 0.476974 -0.877346 0.051973
vn -0.169744 -0.969085 -0.178961
vn -0.088168 -0.978240 -0.187780
vn -0.124516 -0.944548 -0.303812
vn -0.145421 -0.980621 -0.131077
vn -0.328959 -0.882656 0.335612
vn -0.271493 -0.803766 0.529344
vn -0.279427 -0.926328 0.252602
vn -0.304086 -0.802606 0.513108
vn -0.267556 -0.776788 -0.570055
vn -0.149541 -0.914304 -0.376354
vn -0.186590 -0.801660 -0.567858
vn -0.159612 -0.963469 -0.215033
vn -0.102206 -0.874264 0.474532
vn -0.089755 -0.864071 0.495224
vn -0.281961 -0.951994 0.119114
vn -0.231025 -0.961791 0.146886
vn -0.344127 -0.740013 -0.577837
vn -0.465926 -0.576403 -0.671285
vn -0.438551 -0.735893 -0.515824
vn -0.525346 -0.565813 -0.635487
vn -0.356395 -0.784295 0.507736
vn -0.428053 -0.646290 0.631703
vn -0.329753 -0.833674 0.442946
vn -0.549364 -0.665731 0.504929
vn -0.567858 -0.796960 -0.205756
vn -0.612415 -0.744896 -0.264626
vn -0.614643 -0.781732 -0.105228
vn -0.636128 -0.685537 0.353984
vn -0.651051 -0.704672 0.281961
vn -0.570086 -0.719047 0.397412
vn -0.715903 -0.676229 -0.173650
vn -0.665548 -0.575945 -0.474624
vn -0.730338 -0.676382 -0.095187
vn -0.687735 -0.690848 -0.222968
vn -0.659352 -0.619404 -0.426069
vn -0.654622 -0.753685 0.058107
vn -0.655202 -0.751640 0.075503
vn -0.675283 -0.734581 0.065706
vn -0.637379 -0.770501 0.002899
vn -0.647603 -0.761895 0.010254
vn -0.631703 -0.767754 -0.107028
vn 0.420942 -0.892361 -0.162633
vn 0.603687 -0.794885 -0.060610
vn 0.604511 -0.796533 -0.007874
vn 0.363292 -0.931639 -0.004578
vn 0.603656 -0.795953 0.044832
vn 0.156957 -0.984008 -0.084140
vn 0.126560 -0.941710 -0.311686
vn 0.003296 -0.994354 -0.105869
vn -0.035585 -0.990143 -0.135289
vn -0.278329 -0.959227 0.048494
vn -0.212836 -0.972350 -0.095920
vn -0.183294 -0.827967 -0.529923
vn -0.281472 -0.921903 -0.266121
vn -0.386242 -0.920560 0.057833
vn -0.390454 -0.864742 -0.315775
vn -0.239784 -0.931578 -0.273171
vn -0.323191 -0.929350 -0.178381
vn -0.465224 -0.884701 -0.028260
vn -0.555712 -0.823817 0.111698
vn -0.635853 -0.755028 0.159978
vn -0.671834 -0.725089 0.151006
vn -0.696371 -0.716514 0.040712
vn -0.679678 -0.731925 -0.047823
vn -0.673605 -0.735588 -0.071566
usemtl sub_rose-sub-2.jpg
s 1
f 3/1/1 7/2/2 8/3/2 5/4/3
f 11/5/4 14/6/5 13/7/5 10/8/6
f 14/6/5 15/9/7 13/7/5
f 9/10/8 16/11/9 17/12/9 12/13/10
f 16/11/9 18/14/11 17/12/9
f 20/15/12 23/16/13 24/17/13 22/18/14
f 23/16/13 25/19/15 24/17/13
f 21/20/16 27/21/17 26/22/17 19/23/18
f 27/21/17 28/24/19 26/22/17
f 32/25/20 36/26/21 35/27/21 33/28/22
f 36/26/21 37/29/23 35/27/21
f 42/30/24 41/31/24 38/32/25
f 31/33/26 34/34/27 41/31/24 42/30/24
f 40/35/28 45/36/29 46/37/29 44/38/30
f 45/36/29 47/39/31 46/37/29
f 43/40/32 49/41/33 48/42/33 39/43/34
f 49/41/33 50/44/35 48/42/33
f 52/45/36 62/46/37 53/47/38
f 54/48/39 63/49/40 51/50/41
f 58/51/42 64/52/43 55/53/44
f 60/54/45 65/55/46 58/51/42
f 57/56/47 66/57/48 59/58/49
f 56/59/50 67/60/51 57/56/47
f 53/47/38 68/61/52 56/59/50
f 4/62/53 1/63/54 69/64/55 70/65/56
f 70/65/56 69/64/55 2/66/57 3/1/1
f 3/1/1 5/4/3 71/67/58 70/65/56
f 70/65/56 71/67/58 6/68/59 4/62/53
f 5/4/3 9/10/8 72/69/60 71/67/58
f 71/67/58 72/69/60 10/8/6 6/68/59
f 9/10/8 12/13/10 73/70/61 72/69/60
f 72/69/60 73/70/61 11/5/4 10/8/6
f 12/13/10 20/15/12 74/71/62 73/70/61
f 73/70/61 74/71/62 19/23/18 11/5/4
f 20/15/12 22/18/14 75/72/63 74/71/62
f 74/71/62 75/72/63 21/20/16 19/23/18
f 22/18/14 29/73/64 76/74/65 75/72/63
f 75/72/63 76/74/65 30/75/66 21/20/16
f 29/73/64 32/25/20 77/76/67 76/74/65
f 76/74/65 77/76/67 31/33/26 30/75/66
f 32/25/20 33/28/22 78/77/68 77/76/67
f 77/76/67 78/77/68 34/34/27 31/33/26
f 33/28/22 40/35/28 79/78/69 78/77/68
f 78/77/68 79/78/69 39/43/34 34/34/27
f 40/35/28 44/38/30 80/79/70 79/78/69
f 79/78/69 80/79/70 43/40/32 39/43/34
f 44/38/30 52/45/36 81/80/71 80/81/70
f 80/81/70 81/80/71 51/50/41 43/40/32
f 52/45/36 53/47/38 82/82/72 81/80/71
f 81/80/71 82/82/72 54/48/39 51/50/41
f 53/47/38 56/59/50 83/83/73 82/82/72
f 82/82/72 83/83/73 55/53/44 54/48/39
f 56/59/50 57/56/47 84/84/74 83/83/73
f 83/83/73 84/84/74 58/51/42 55/53/44
f 57/56/47 59/58/49 85/85/75 84/84/74
f 84/84/74 85/85/75 60/54/45 58/51/42
f 59/58/49 61/86/76 85/85/75
f 85/85/75 61/86/76 60/54/45
