# Blender3D v245 OBJ File: <memory>
# www.blender3d.org
o lode
v 0.000000 -1.000000 0.000000
v 0.382683 -0.923880 0.000000
v 0.707107 -0.707107 0.000000
v 0.923880 -0.382683 0.000000
v 1.000000 0.000000 -0.000000
v 0.923880 0.382684 -0.000000
v 0.707107 0.707107 -0.000000
v 0.382683 0.923880 -0.000000
v 0.270598 0.923880 0.270598
v 0.500000 0.707107 0.500000
v 0.653281 0.382684 0.653282
v 0.707107 0.000000 0.707107
v 0.653281 -0.382683 0.653282
v 0.500000 -0.707107 0.500000
v 0.270598 -0.923880 0.270598
v -0.000000 -0.923880 0.382684
v -0.000000 -0.707107 0.707107
v -0.000000 -0.382683 0.923880
v -0.000000 0.000000 1.000000
v -0.000000 0.382684 0.923880
v -0.000000 0.707107 0.707107
v -0.000000 0.923880 0.382684
v -0.270598 0.923880 0.270598
v -0.500000 0.707107 0.500000
v -0.653282 0.382684 0.653282
v -0.707107 0.000000 0.707107
v -0.653282 -0.382683 0.653282
v -0.500000 -0.707107 0.500000
v -0.270598 -0.923880 0.270598
v -0.382683 -0.923880 -0.000000
v -0.707107 -0.707107 -0.000000
v -0.923880 -0.382683 -0.000000
v -1.000000 -0.000000 -0.000000
v -0.923880 0.382684 -0.000000
v -0.707107 0.707107 -0.000000
v -0.382684 0.923880 -0.000000
v -0.000000 1.000000 -0.000000
v -0.270598 0.923880 -0.270598
v -0.500000 0.707107 -0.500000
v -0.653281 0.382684 -0.653282
v -0.707107 -0.000000 -0.707107
v -0.653281 -0.382683 -0.653282
v -0.500000 -0.707107 -0.500000
v -0.270598 -0.923880 -0.270598
v 0.000000 -0.923880 -0.382683
v 0.000000 -0.707107 -0.707107
v 0.000000 -0.382683 -0.923880
v 0.000000 -0.000000 -1.000000
v 0.000000 0.382684 -0.923880
v 0.000000 0.707107 -0.707107
v 0.000000 0.923880 -0.382684
v 0.270598 0.923880 -0.270598
v 0.500000 0.707107 -0.500000
v 0.653282 0.382684 -0.653281
v 0.707107 -0.000000 -0.707107
v 0.653282 -0.382683 -0.653281
v 0.500000 -0.707107 -0.500000
v 0.270598 -0.923880 -0.270598
vt 0.000000 1.000000
vt 0.000000 0.000000
vt 1.000000 0.000000
vt 0.000000 1.000000
vt 0.000000 0.000000
vt 1.000000 0.000000
vt 1.000000 1.000000
vt 0.000000 1.000000
vt 0.000000 0.000000
vt 1.000000 0.000000
vt 1.000000 1.000000
vt 0.000000 1.000000
vt 0.000000 0.000000
vt 1.000000 0.000000
vt 1.000000 1.000000
vt 0.000000 1.000000
vt 0.000000 0.000000
vt 1.000000 0.000000
vt 1.000000 1.000000
vt 0.000000 1.000000
vt 0.000000 0.000000
vt 1.000000 0.000000
vt 1.000000 1.000000
vt 0.000000 1.000000
vt 0.000000 0.000000
vt 1.000000 0.000000
vt 1.000000 1.000000
vt 0.000000 1.000000
vt 0.000000 0.000000
vt 1.000000 0.000000
vt 0.000000 1.000000
vt 0.000000 0.000000
vt 1.000000 0.000000
vt 0.000000 1.000000
vt 0.000000 0.000000
vt 1.000000 0.000000
vt 1.000000 1.000000
vt 0.000000 1.000000
vt 0.000000 0.000000
vt 1.000000 0.000000
vt 1.000000 1.000000
vt 0.000000 1.000000
vt 0.000000 0.000000
vt 1.000000 0.000000
vt 1.000000 1.000000
vt 0.000000 1.000000
vt 0.000000 0.000000
vt 1.000000 0.000000
vt 1.000000 1.000000
vt 0.000000 1.000000
vt 0.000000 0.000000
vt 1.000000 0.000000
vt 1.000000 1.000000
vt 0.000000 1.000000
vt 0.000000 0.000000
vt 1.000000 0.000000
vt 1.000000 1.000000
vt 0.000000 1.000000
vt 0.000000 0.000000
vt 1.000000 0.000000
vt 0.000000 1.000000
vt 0.000000 0.000000
vt 1.000000 0.000000
vt 0.000000 1.000000
vt 0.000000 0.000000
vt 1.000000 0.000000
vt 1.000000 1.000000
vt 0.000000 1.000000
vt 0.000000 0.000000
vt 1.000000 0.000000
vt 1.000000 1.000000
vt 0.000000 1.000000
vt 0.000000 0.000000
vt 1.000000 0.000000
vt 1.000000 1.000000
vt 0.000000 1.000000
vt 0.000000 0.000000
vt 1.000000 0.000000
vt 1.000000 1.000000
vt 0.000000 1.000000
vt 0.000000 0.000000
vt 1.000000 0.000000
vt 1.000000 1.000000
vt 0.000000 1.000000
vt 0.000000 0.000000
vt 1.000000 0.000000
vt 1.000000 1.000000
vt 0.000000 1.000000
vt 0.000000 0.000000
vt 1.000000 0.000000
vt 0.000000 1.000000
vt 0.000000 0.000000
vt 1.000000 0.000000
vt 0.000000 1.000000
vt 0.000000 0.000000
vt 1.000000 0.000000
vt 1.000000 1.000000
vt 0.000000 1.000000
vt 0.000000 0.000000
vt 1.000000 0.000000
vt 1.000000 1.000000
vt 0.000000 1.000000
vt 0.000000 0.000000
vt 1.000000 0.000000
vt 1.000000 1.000000
vt 0.000000 1.000000
vt 0.000000 0.000000
vt 1.000000 0.000000
vt 1.000000 1.000000
vt 0.000000 1.000000
vt 0.000000 0.000000
vt 1.000000 0.000000
vt 1.000000 1.000000
vt 0.000000 1.000000
vt 0.000000 0.000000
vt 1.000000 0.000000
vt 1.000000 1.000000
vt 0.000000 1.000000
vt 0.000000 0.000000
vt 1.000000 0.000000
vt 0.000000 1.000000
vt 0.000000 0.000000
vt 1.000000 0.000000
vt 0.000000 1.000000
vt 0.000000 0.000000
vt 1.000000 0.000000
vt 1.000000 1.000000
vt 0.000000 1.000000
vt 0.000000 0.000000
vt 1.000000 0.000000
vt 1.000000 1.000000
vt 0.000000 1.000000
vt 0.000000 0.000000
vt 1.000000 0.000000
vt 1.000000 1.000000
vt 0.000000 1.000000
vt 0.000000 0.000000
vt 1.000000 0.000000
vt 1.000000 1.000000
vt 0.000000 1.000000
vt 0.000000 0.000000
vt 1.000000 0.000000
vt 1.000000 1.000000
vt 0.000000 1.000000
vt 0.000000 0.000000
vt 1.000000 0.000000
vt 1.000000 1.000000
vt 0.000000 1.000000
vt 0.000000 0.000000
vt 1.000000 0.000000
vt 0.000000 1.000000
vt 0.000000 0.000000
vt 1.000000 0.000000
vt 0.000000 1.000000
vt 0.000000 0.000000
vt 1.000000 0.000000
vt 1.000000 1.000000
vt 0.000000 1.000000
vt 0.000000 0.000000
vt 1.000000 0.000000
vt 1.000000 1.000000
vt 0.000000 1.000000
vt 0.000000 0.000000
vt 1.000000 0.000000
vt 1.000000 1.000000
vt 0.000000 1.000000
vt 0.000000 0.000000
vt 1.000000 0.000000
vt 1.000000 1.000000
vt 0.000000 1.000000
vt 0.000000 0.000000
vt 1.000000 0.000000
vt 1.000000 1.000000
vt 0.000000 1.000000
vt 0.000000 0.000000
vt 1.000000 0.000000
vt 1.000000 1.000000
vt 0.000000 1.000000
vt 0.000000 0.000000
vt 1.000000 0.000000
vt 0.000000 1.000000
vt 0.000000 0.000000
vt 1.000000 0.000000
vt 0.000000 1.000000
vt 0.000000 0.000000
vt 1.000000 0.000000
vt 1.000000 1.000000
vt 0.000000 1.000000
vt 0.000000 0.000000
vt 1.000000 0.000000
vt 1.000000 1.000000
vt 0.000000 1.000000
vt 0.000000 0.000000
vt 1.000000 0.000000
vt 1.000000 1.000000
vt 0.000000 1.000000
vt 0.000000 0.000000
vt 1.000000 0.000000
vt 1.000000 1.000000
vt 0.000000 1.000000
vt 0.000000 0.000000
vt 1.000000 0.000000
vt 1.000000 1.000000
vt 0.000000 1.000000
vt 0.000000 0.000000
vt 1.000000 0.000000
vt 1.000000 1.000000
vt 0.000000 1.000000
vt 0.000000 0.000000
vt 1.000000 0.000000
vt 0.000000 1.000000
vt 0.000000 0.000000
vt 1.000000 0.000000
vt 0.000000 1.000000
vt 0.000000 0.000000
vt 1.000000 0.000000
vt 1.000000 1.000000
vt 0.000000 1.000000
vt 0.000000 0.000000
vt 1.000000 0.000000
vt 1.000000 1.000000
vt 0.000000 1.000000
vt 0.000000 0.000000
vt 1.000000 0.000000
vt 1.000000 1.000000
vt 0.000000 1.000000
vt 0.000000 0.000000
vt 1.000000 0.000000
vt 1.000000 1.000000
vt 0.000000 1.000000
vt 0.000000 0.000000
vt 1.000000 0.000000
vt 1.000000 1.000000
vt 0.000000 1.000000
vt 0.000000 0.000000
vt 1.000000 0.000000
vt 1.000000 1.000000
vt 0.000000 1.000000
vt 0.000000 0.000000
vt 1.000000 0.000000
vn 0.000000 1.000000 0.000000
vn 0.269112 0.924711 0.269112
vn 0.380596 0.924711 0.000000
vn 0.498489 0.709220 0.498489
vn 0.704947 0.709220 0.000000
vn 0.652730 0.384533 0.652730
vn 0.923093 0.384533 0.000000
vn 0.707083 0.000000 0.707083
vn 1.000000 0.000000 0.000000
vn 0.652730 -0.384533 0.652730
vn 0.923093 -0.384533 0.000000
vn 0.498489 -0.709220 0.498489
vn 0.704947 -0.709220 0.000000
vn 0.269112 -0.924711 0.269112
vn 0.380596 -0.924711 0.000000
vn 0.000000 -1.000000 0.000000
vn 0.000000 -0.924711 0.380596
vn 0.000000 -0.709220 0.704947
vn 0.000000 -0.384533 0.923093
vn 0.000000 0.000000 1.000000
vn 0.000000 0.384533 0.923093
vn 0.000000 0.709220 0.704947
vn 0.000000 0.924711 0.380596
vn -0.269112 0.924711 0.269112
vn -0.498489 0.709220 0.498489
vn -0.652730 0.384533 0.652730
vn -0.707083 0.000000 0.707083
vn -0.652730 -0.384533 0.652730
vn -0.498489 -0.709220 0.498489
vn -0.269112 -0.924711 0.269112
vn -0.380596 -0.924711 0.000000
vn -0.704947 -0.709220 0.000000
vn -0.923093 -0.384533 0.000000
vn -1.000000 0.000000 0.000000
vn -0.923093 0.384533 0.000000
vn -0.704947 0.709220 0.000000
vn -0.380596 0.924711 0.000000
vn -0.269112 0.924711 -0.269112
vn -0.498489 0.709220 -0.498489
vn -0.652730 0.384533 -0.652730
vn -0.707083 0.000000 -0.707083
vn -0.652730 -0.384533 -0.652730
vn -0.498489 -0.709220 -0.498489
vn -0.269112 -0.924711 -0.269112
vn 0.000000 -0.924711 -0.380596
vn 0.000000 -0.709220 -0.704947
vn 0.000000 -0.384533 -0.923093
vn 0.000000 0.000000 -1.000000
vn 0.000000 0.384533 -0.923093
vn 0.000000 0.709220 -0.704947
vn 0.000000 0.924711 -0.380596
vn 0.269112 0.924711 -0.269112
vn 0.498489 0.709220 -0.498489
vn 0.652730 0.384533 -0.652730
vn 0.707083 0.000000 -0.707083
vn 0.652730 -0.384533 -0.652730
vn 0.498489 -0.709220 -0.498489
vn 0.269112 -0.924711 -0.269112
usemtl (null)
s 1
f 37/1/1 9/2/2 8/3/3
f 8/4/3 9/5/2 10/6/4 7/7/5
f 7/8/5 10/9/4 11/10/6 6/11/7
f 6/12/7 11/13/6 12/14/8 5/15/9
f 5/16/9 12/17/8 13/18/10 4/19/11
f 4/20/11 13/21/10 14/22/12 3/23/13
f 3/24/13 14/25/12 15/26/14 2/27/15
f 15/28/14 1/29/16 2/30/15
f 16/31/17 1/32/16 15/33/14
f 14/34/12 17/35/18 16/36/17 15/37/14
f 13/38/10 18/39/19 17/40/18 14/41/12
f 12/42/8 19/43/20 18/44/19 13/45/10
f 11/46/6 20/47/21 19/48/20 12/49/8
f 10/50/4 21/51/22 20/52/21 11/53/6
f 9/54/2 22/55/23 21/56/22 10/57/4
f 37/58/1 22/59/23 9/60/2
f 37/61/1 23/62/24 22/63/23
f 22/64/23 23/65/24 24/66/25 21/67/22
f 21/68/22 24/69/25 25/70/26 20/71/21
f 20/72/21 25/73/26 26/74/27 19/75/20
f 19/76/20 26/77/27 27/78/28 18/79/19
f 18/80/19 27/81/28 28/82/29 17/83/18
f 17/84/18 28/85/29 29/86/30 16/87/17
f 29/88/30 1/89/16 16/90/17
f 30/91/31 1/92/16 29/93/30
f 28/94/29 31/95/32 30/96/31 29/97/30
f 27/98/28 32/99/33 31/100/32 28/101/29
f 26/102/27 33/103/34 32/104/33 27/105/28
f 25/106/26 34/107/35 33/108/34 26/109/27
f 24/110/25 35/111/36 34/112/35 25/113/26
f 23/114/24 36/115/37 35/116/36 24/117/25
f 37/118/1 36/119/37 23/120/24
f 37/121/1 38/122/38 36/123/37
f 36/124/37 38/125/38 39/126/39 35/127/36
f 35/128/36 39/129/39 40/130/40 34/131/35
f 34/132/35 40/133/40 41/134/41 33/135/34
f 33/136/34 41/137/41 42/138/42 32/139/33
f 32/140/33 42/141/42 43/142/43 31/143/32
f 31/144/32 43/145/43 44/146/44 30/147/31
f 44/148/44 1/149/16 30/150/31
f 45/151/45 1/152/16 44/153/44
f 43/154/43 46/155/46 45/156/45 44/157/44
f 42/158/42 47/159/47 46/160/46 43/161/43
f 41/162/41 48/163/48 47/164/47 42/165/42
f 40/166/40 49/167/49 48/168/48 41/169/41
f 39/170/39 50/171/50 49/172/49 40/173/40
f 38/174/38 51/175/51 50/176/50 39/177/39
f 37/178/1 51/179/51 38/180/38
f 37/181/1 52/182/52 51/183/51
f 51/184/51 52/185/52 53/186/53 50/187/50
f 50/188/50 53/189/53 54/190/54 49/191/49
f 49/192/49 54/193/54 55/194/55 48/195/48
f 48/196/48 55/197/55 56/198/56 47/199/47
f 47/200/47 56/201/56 57/202/57 46/203/46
f 46/204/46 57/205/57 58/206/58 45/207/45
f 58/208/58 1/209/16 45/210/45
f 2/211/15 1/212/16 58/213/58
f 57/214/57 3/215/13 2/216/15 58/217/58
f 56/218/56 4/219/11 3/220/13 57/221/57
f 55/222/55 5/223/9 4/224/11 56/225/56
f 54/226/54 6/227/7 5/228/9 55/229/55
f 53/230/53 7/231/5 6/232/7 54/233/54
f 52/234/52 8/235/3 7/236/5 53/237/53
f 37/238/1 8/239/3 52/240/52
