# Blender3D v249 OBJ File: spruce-branch.blend
# www.blender3d.org
o spruce-branch
v -0.600000 -3.575486 -6.088478
v -1.111288 -3.488029 -3.823645
v -0.000000 -1.575486 -6.088479
v 1.111288 -3.488029 -3.823645
v -0.000000 -1.283933 -4.109662
v -0.000000 -1.575486 -4.088478
v -0.000000 -0.796265 -1.984295
v 1.281700 -3.325966 -1.570004
v -1.281700 -3.325966 -1.570004
v -1.550866 -2.916790 0.935241
v 1.550867 -2.916790 0.935241
v -0.000000 0.039875 -0.002241
v 0.600000 -3.575486 -6.088478
vt 0.504745 0.994962
vt 0.314760 0.965601
vt 0.218843 0.673028
vt 0.500000 0.652451
vt 0.682189 0.951766
vt 0.768951 0.683345
vt 0.113506 0.352049
vt 0.500000 0.317806
vt 0.874287 0.348997
vt 0.500000 0.041138
vt 0.984772 0.069558
vt 0.006835 0.089394
vn 0.000000 -0.930631 0.365917
vn -0.919980 -0.364727 0.143406
vn -0.907804 -0.401318 0.121647
vn 0.000000 -0.956420 0.291971
vn 0.919980 -0.364727 0.143406
vn 0.907804 -0.401318 0.121647
vn -0.893551 -0.428205 0.134770
vn 0.000000 -0.953887 0.300058
vn 0.893551 -0.428205 0.134770
vn 0.000000 -0.926756 0.375622
vn 0.892087 -0.418744 0.169713
vn -0.892087 -0.418744 0.169713
s 1
f 3/1/1 13/2/2 4/3/3 5/4/4
f 1/5/5 3/1/1 5/4/4 2/6/6
f 5/4/4 4/3/3 8/7/7 7/8/8
f 2/6/6 5/4/4 7/8/8 9/9/9
f 9/9/9 7/8/8 12/10/10 10/11/11
f 7/8/8 8/7/7 11/12/12 12/10/10
